<svg
   xmlns="http://www.w3.org/2000/svg"
   id="svg8"
   version="1.1"
   viewBox="0 0 720 720"
   height="720"
   width="720"
   preserveAspectRation="xMidYMid meet">
  <g
     transform="translate(0,158.25002)"
     id="layer1">
    <circle
       r="350"
       cy="201.74998"
       cx="360"
       id="path815"
       style="opacity:1;fill:#fffffc;fill-opacity:1;stroke:none;stroke-width:5.83333349;stroke-linecap:butt;stroke-miterlimit:4;stroke-dasharray:none;stroke-opacity:1" />
    <path
       id="path817-0"
       d="m 360.00002,-148.25002 v 69.999996 280.000004 h -174 v 70 h 174 v 210 70 a 350.20712,350 0 0 0 303.28906,-175 350.20712,350 0 0 0 46.60156,-175 H 639.91213 430.00002 V -68.871118 a 280.1657,280 0 0 1 90.51172,41.525394 l 40.26172,-57.468753 A 350.20712,350 0 0 0 360.00002,-148.25002 Z m 221.52148,79.199215 a 350.20712,350 0 0 1 13.17774,11.568361 350.20712,350 0 0 0 -13.17774,-11.568361 z m 25.95899,23.466801 a 350.20712,350 0 0 1 11.91601,12.78515 350.20712,350 0 0 0 -11.91601,-12.78515 z m 90.39062,156.839844 a 350.20712,350 0 0 1 4.33203,16.95508 350.20712,350 0 0 0 -4.33203,-16.95508 z m 7.35547,34.18359 a 350.20712,350 0 0 1 2.61133,17.2793 350.20712,350 0 0 0 -2.61133,-17.2793 z m 3.90039,34.73438 a 350.20712,350 0 0 1 0.87305,17.44531 350.20712,350 0 0 0 -0.87305,-17.44531 z m -279.12695,91.57617 h 200.82812 a 280.1657,280 0 0 1 -28.19921,70 280.1657,280 0 0 1 -172.62891,130.75977 z"
       style="opacity:1;fill:#002d5b;fill-opacity:1;stroke:none;stroke-width:5.83505964;stroke-linecap:butt;stroke-miterlimit:4;stroke-dasharray:none;stroke-opacity:1" />
    <path
       id="path817"
       d="m 360.00002,-148.25002 a 350.20712,350 0 0 0 -200.77344,63.435543 l 40.26172,57.468753 a 280.1657,280 0 0 1 90.51172,-41.525394 V 472.50975 a 280.1657,280 0 0 1 -172.62891,-130.75977 280.1657,280 0 0 1 -37.2832,-140 H 10.109394 a 350.20712,350 0 0 0 46.601563,175 350.20712,350 0 0 0 303.289063,175 v -70 -560.000004 z m -221.52148,79.199215 a 350.20712,350 0 0 0 -13.17774,11.568361 350.20712,350 0 0 1 13.17774,-11.568361 z m -25.95899,23.466801 a 350.20712,350 0 0 0 -11.91601,12.78515 350.20712,350 0 0 1 11.91601,-12.78515 z M 32.859394,77.988256 a 350.20712,350 0 0 0 -6.009766,16.45508 350.20712,350 0 0 1 6.009766,-16.45508 z M 22.128925,111.25584 a 350.20712,350 0 0 0 -4.332031,16.95508 350.20712,350 0 0 1 4.332031,-16.95508 z m -7.355468,34.18359 a 350.20712,350 0 0 0 -2.611329,17.2793 350.20712,350 0 0 1 2.611329,-17.2793 z m -3.900391,34.73438 a 350.20712,350 0 0 0 -0.873047,17.44531 350.20712,350 0 0 1 0.873047,-17.44531 z"
       style="opacity:1;fill:#f54500;fill-opacity:1;stroke:none;stroke-width:5.83505964;stroke-linecap:butt;stroke-miterlimit:4;stroke-dasharray:none;stroke-opacity:1" />
  </g>
</svg>
